<svg version="1" xmlns="http://www.w3.org/2000/svg" width="682.667" height="682.667" viewBox="0 0 512.000000 512.000000"><path d="M134 133.1c-9.6 1.6-11.7 2-18 4.1-26.4 8.5-45.6 28.7-49.6 52.3-.9 5-.8 16.8.1 22 3.3 18.8 19.2 36.8 43 48.8 10.1 5.1 16.8 7.7 37 14.7 27 9.3 38.2 15.8 45.4 26.4 4 5.8 5.3 10.1 5.6 18.2.4 8.9-.9 14.5-5 21-7.9 12.5-22 19.2-41.7 20-28.7 1.1-49.1-11.6-57.4-35.9-1.3-3.9-2.4-8.1-2.4-9.4 0-2.6 1.3-2.4-18.5-2.7-6.6-.1-12.6 0-13.3.3-1.3.3-1.2 2.7.3 12.6 1.8 11.2 10 25.9 20.1 35.9 17.9 17.8 42.7 26.8 71.9 26.1 28-.7 52.1-11.3 66.5-29.4 6.4-8 8.6-12.4 11.1-21.8 4.3-16.9 1.2-35-8.5-49.6-11.6-17.3-31.4-29.6-67.6-41.7-40.8-13.7-52.1-23-54.4-44.7-.2-1.3.1-4.8.6-7.8 3-19.5 24.2-33.8 49-33 4 .1 8.9.5 10.8 1 9.6 2 21.1 9.1 26.9 16.3 4.2 5.4 8.9 15.7 10.4 22.8.7 3.3 1.5 6.3 1.9 6.9.5.8 24.5 1.2 30.8.6 2.5-.3 0-16.5-4-26.1-10-23.6-30.7-40-58.9-46.7-7.2-1.7-25-2.4-32.1-1.2zM260.8 136.5c-.3.3.1 4.7.8 9.8.7 5 1.5 11.9 1.9 15.2.9 7.7 1.3 11.1 1.9 16 .3 2.2.8 6.2 1.1 9 .3 2.7.7 6.6 1 8.5.2 1.9.7 5.3.9 7.5.3 2.2 1 7.6 1.5 12 .6 4.4 1.3 10.2 1.6 13 .3 2.7.8 6.3 1 8 .4 2.9.9 7 2 17 .3 2.7.8 6.3 1 8 .3 1.6.7 5.2 1 8 .3 2.7 1 8.4 1.5 12.5.6 4.1 1.2 9.5 1.5 12 .3 2.5.7 6.1 1 8 .2 1.9.7 6 1 9 .4 3 .8 6.6 1 8 .2 1.4.7 5 1 8 1.3 11.1 1.5 12.6 2.5 20 .5 4.1 1.2 10.2 1.6 13.5.3 3.3.7 6.7.9 7.5.1.8.6 4.4 1 8 1.1 11-.6 10.1 17.7 9.8 13.4-.3 16.2-.6 16.3-1.8.2-.8.8-4.2 1.4-7.5.6-3.3 1.3-7.6 1.6-9.5.4-1.9 1.3-7.3 2.1-12 1.4-8.1 1.8-10.1 2.9-17 .3-1.7.7-4.4 1-6 1.2-7.4 1.7-10.2 3.6-20.5 1-6.1 2.1-12.1 2.4-13.5.2-1.4 2.2-13.3 4.5-26.5 2.2-13.2 5.2-30.5 6.6-38.5 2.8-16.1 3-17.3 4.1-23.9.4-2.5.8-4.9.9-5.4.1-.4.2-1.4.3-2.4 0-.9.3-1.4.5-1.2.4.4 4.4 22.7 5.2 29.4.2 1.6.8 5.2 1.4 8 .9 4.4 6.3 35.9 7.6 44 .2 1.6 1.6 9.3 2.9 17 1.3 7.7 2.6 15.3 2.9 17 .8 4.9 3.6 20.8 4 23.2.3 1.1.8 4.3 1.2 7 .3 2.6.8 5.7 1 6.8.3 1.1.7 3.5 1 5.4.3 1.8.8 4.3 1 5.5.2 1.1 1.2 6.7 2.1 12.3l1.7 10.3h16.3c16.2 0 16.3 0 16.4-2.3 0-1.2.2-3.1.4-4.2.4-2.2 2.2-17.2 3-24.5.3-2.5.7-6.1 1-8 .6-4.4 1.4-10.4 2-15.5.2-2.2 1.6-13.5 3-25 1.4-11.6 2.8-23.3 3.1-26 1.1-9.4 1.4-12 2.4-19.5.5-4.1 1.2-9.8 1.5-12.5.7-6.6 1.6-13.4 2.1-16.4.2-1.4.6-5.4.9-9 .4-3.6.8-7.3 1-8.1.2-.8.6-4 1-7 .3-3 .8-7.1 1-9 .3-1.9.7-5.3.9-7.5.3-2.2.8-5.8 1-8 1.3-10 2.5-20.4 3.1-25 .3-2.8.7-6.6 1-8.5.2-1.9.7-5.6 1-8.2l.5-4.7h-15c-13.7-.1-15 0-15.1 1.6-.2 3-.5 6.6-1.2 11.8-.4 2.7-.9 7.7-1.2 11-.3 3.3-.7 7.3-1 9-.2 1.6-.7 6.6-1 11-.4 4.4-.8 8.7-1 9.5-.2.8-.7 4.6-1 8.5-.3 3.8-.8 8.3-1 10-.2 1.6-.6 6.1-1 10-.4 3.8-.8 8.1-1 9.5-.2 1.4-.7 5.6-1.1 9.5-.4 3.8-.8 8.1-.9 9.5-.2 1.4-.6 5.6-1 9.5-.3 3.8-.8 8.1-1 9.5-.2 1.4-.6 5.4-1 9-.3 3.6-.8 8.7-1.2 11.5-.3 2.7-.7 6.1-.8 7.5-.1 1.4-.6 6.1-1 10.5s-.8 8.6-.8 9.3c0 1.4-1 .7-1.3-1.1-1.1-5.8-4.5-25-4.9-28.2-.3-2.2-.8-4.6-1.1-5.4-.2-.8-.7-3-1-5-.3-2-1.2-7.4-2.1-12.1-.9-4.7-1.7-9.4-1.8-10.5-.2-1.1-.6-3.6-1-5.5-1.4-7.9-4.6-25.9-5.6-31.5-.5-3.3-1.2-7-1.4-8.3-.2-1.2-.9-5-1.5-8.5-.6-3.4-1.5-8.2-2-10.7s-1.2-6.1-1.4-8c-1-6.5-4.7-27.4-5-27.9-.2-.3-.7-2.9-1-5.6-1.4-10.5 0-9.6-15.4-9.3l-13.6.3-.7 2.8c-.4 1.5-1 4.9-1.4 7.5-.3 2.6-.8 5.4-1 6.2-.2.8-.7 3.1-1 5-.7 4.3-1.6 9.8-2.1 12.5-.2 1.1-.9 4.7-1.4 8-.5 3.3-1.2 6.9-1.4 8-.2 1.1-.6 3.6-.9 5.5-1.4 8.2-1.7 9.6-2.2 12-.3 1.4-.8 4.1-1.1 6-.3 1.9-1.1 6.9-1.9 11-.8 4.1-1.7 9.1-1.9 11-.3 1.9-.8 4.8-1.1 6.5-.3 1.6-1.7 9.3-3 17-1.4 7.7-2.9 16.2-3.5 19-.5 2.7-1.2 6.7-1.6 8.9-.3 2.1-.8 4.8-1 6-.2 1.1-.7 4.1-1 6.6-.3 2.5-.8 4.8-1 5.1-.2.4-.6 3.1-1 6-1 8.7-2.1 8.8-2.9.3-.4-4.3-.9-8.6-1-9.5-.2-.9-.6-4.8-.9-8.8-.7-7.6-1.3-13.9-2.1-20.6-1.4-12.1-2.3-20.7-3-29-.3-3.9-.8-8.1-1-9.5-.3-1.4-.7-5.2-1-8.5-1.1-11-2.4-23.5-3.1-30-.3-2.8-.7-6.6-.9-8.5-.8-9-1.6-16.8-2-19.5-.2-1.7-.7-5.9-1-9.5-.4-3.6-1-9-1.3-12l-.7-5.5-14.6-.2c-8-.1-14.8 0-15.1.2z"/></svg>